# Blender v2.93.6 OBJ File: 'car stand.blend'
# www.blender.org
mtllib car stand.mtl
o Cube
v 2.062649 0.280307 -1.000000
v 2.062649 -0.280307 -1.000000
v 2.062649 0.280307 1.000000
v 2.062649 -0.280307 1.000000
v 1.546470 -0.280307 1.000000
v 1.546470 0.280307 -1.000000
v 1.546470 -0.280307 -1.000000
v 1.546470 0.280307 1.000000
v 2.062649 2.092679 -1.000000
v 2.062649 2.092679 1.000000
v 1.546470 2.092679 -1.000000
v 1.546470 2.092679 1.000000
v 2.649886 0.111502 -11.522305
v 0.975841 0.111502 -11.522305
v 2.649886 -0.280477 -11.522305
v 0.975841 -0.280477 -11.522305
v 2.649886 2.092679 -5.593114
v 2.649886 2.092679 5.593114
v 0.975841 2.092679 -5.593114
v 0.975841 2.092679 5.593114
v 2.579765 2.484657 -5.522994
v 2.579765 2.484657 5.522994
v 1.045962 2.484657 -5.522994
v 1.045962 2.484657 5.522994
v 1.290761 2.484657 -5.522994
v 2.518828 2.484657 -5.522994
v 1.486745 2.238851 -6.207246
v 1.819991 2.078799 -6.607127
v 2.287211 2.224361 -6.243450
v 2.284003 2.484657 -4.371488
v 1.879776 2.484657 -3.556190
v 1.311720 2.484657 -4.230129
v 1.705720 2.367353 -5.467475
v 2.053255 2.367353 -5.467475
v 1.822001 2.179278 -5.937333
v 1.817550 2.390954 -4.774525
v 2.649886 2.484657 -5.593114
v 2.649886 2.561924 5.593114
v 2.461564 2.484657 -5.593114
v 0.975841 2.561924 5.593114
v 0.975841 2.484657 -5.593114
v 1.359754 2.484657 -5.593114
v 2.217123 2.484657 -4.394450
v 1.864462 2.484657 -3.683159
v 1.381427 2.484657 -4.256230
v 2.579765 2.484657 -5.522994
v 2.579765 2.561924 5.522994
v 2.518828 2.484657 -5.522994
v 1.045962 2.561924 5.522994
v 1.045962 2.484657 -5.522994
v 1.290761 2.484657 -5.522994
v 2.284003 2.484657 -4.371488
v 1.879776 2.484657 -3.556190
v 1.311720 2.484657 -4.230129
v -2.062649 0.280307 -1.000000
v -2.062649 -0.280307 -1.000000
v -2.062649 0.280307 1.000000
v -2.062649 -0.280307 1.000000
v 0.000000 -0.280307 -1.000000
v 0.000000 0.280307 1.000000
v 0.000000 -0.280307 1.000000
v 0.000000 0.280307 -1.000000
v -1.546470 -0.280307 1.000000
v -1.546470 0.280307 -1.000000
v -1.546470 -0.280307 -1.000000
v -1.546470 0.280307 1.000000
v -2.062649 2.092679 -1.000000
v -2.062649 2.092679 1.000000
v -1.546470 2.092679 -1.000000
v -1.546470 2.092679 1.000000
v -2.649886 0.111502 -11.522305
v -0.975841 0.111502 -11.522305
v -2.649886 -0.280477 -11.522305
v -0.975841 -0.280477 -11.522305
v -2.649886 2.092679 -5.593114
v -2.649886 2.092679 5.593114
v -0.975841 2.092679 -5.593114
v -0.975841 2.092679 5.593114
v -2.579765 2.484657 -5.522994
v -2.579765 2.484657 5.522994
v -1.045962 2.484657 -5.522994
v -1.045962 2.484657 5.522994
v -1.290761 2.484657 -5.522994
v -2.518828 2.484657 -5.522994
v -1.486745 2.238851 -6.207246
v -1.819991 2.078799 -6.607127
v -2.287211 2.224361 -6.243450
v -2.284003 2.484657 -4.371488
v -1.879776 2.484657 -3.556190
v -1.311720 2.484657 -4.230129
v -1.705720 2.367353 -5.467475
v -2.053255 2.367353 -5.467475
v -1.822001 2.179278 -5.937333
v -1.817550 2.390954 -4.774525
v -2.649886 2.484657 -5.593114
v -2.649886 2.561924 5.593114
v -2.461564 2.484657 -5.593114
v -0.975841 2.561924 5.593114
v -0.975841 2.484657 -5.593114
v -1.359754 2.484657 -5.593114
v -2.217123 2.484657 -4.394450
v -1.864462 2.484657 -3.683159
v -1.381427 2.484657 -4.256230
v -2.579765 2.484657 -5.522994
v -2.579765 2.561924 5.522994
v -2.518828 2.484657 -5.522994
v -1.045962 2.561924 5.522994
v -1.045962 2.484657 -5.522994
v -1.290761 2.484657 -5.522994
v -2.284003 2.484657 -4.371488
v -1.879776 2.484657 -3.556190
v -1.311720 2.484657 -4.230129
vt 0.593719 0.750000
vt 0.625000 0.750000
vt 0.625000 1.000000
vt 0.593719 1.000000
vt 0.125000 0.500000
vt 0.375000 0.500000
vt 0.375000 0.750000
vt 0.125000 0.750000
vt 0.625000 0.718719
vt 0.875000 0.718719
vt 0.875000 0.750000
vt 0.375000 0.281281
vt 0.625000 0.281281
vt 0.625000 0.375000
vt 0.375000 0.375000
vt 0.406281 0.000000
vt 0.500000 0.000000
vt 0.500000 0.250000
vt 0.406281 0.250000
vt 0.875000 0.718719
vt 0.875000 0.750000
vt 0.375000 0.250000
vt 0.625000 0.250000
vt 0.625000 0.625000
vt 0.875000 0.625000
vt 0.500000 0.750000
vt 0.500000 1.000000
vt 0.875000 0.750000
vt 0.875000 0.718719
vt 0.875000 0.718719
vt 0.875000 0.750000
vt 0.625000 0.250000
vt 0.625000 0.281281
vt 0.375000 0.500000
vt 0.375000 0.750000
vt 0.406281 0.250000
vt 0.406281 0.000000
vt 0.875000 0.718719
vt 0.875000 0.750000
vt 0.406281 0.250000
vt 0.406281 0.000000
vt 0.375000 0.500000
vt 0.375000 0.750000
vt 0.625000 0.250000
vt 0.625000 0.281281
vt 0.625000 0.250000
vt 0.625000 0.281281
vt 0.376310 0.001567
vt 0.377449 0.001567
vt 0.381837 0.027302
vt 0.389390 0.045523
vt 0.400005 0.030461
vt 0.400397 0.001567
vt 0.404971 0.001567
vt 0.404971 0.248433
vt 0.376310 0.248433
vt 0.375000 0.500000
vt 0.375000 0.750000
vt 0.406281 0.250000
vt 0.406281 0.000000
vt 0.375000 0.500000
vt 0.375000 0.500000
vt 0.406281 0.000000
vt 0.406281 0.000000
vt 0.399107 0.000000
vt 0.396735 0.000000
vt 0.390507 0.000000
vt 0.381777 0.000000
vt 0.378519 0.000000
vt 0.375000 0.000000
vt 0.375000 0.000000
vt 0.393310 0.000000
vt 0.390598 0.000000
vt 0.385205 0.000000
vt 0.398703 0.029878
vt 0.389676 0.042685
vt 0.383087 0.026789
vt 0.390702 0.022103
vt 0.376310 0.001567
vt 0.376310 0.248433
vt 0.375000 0.250000
vt 0.377449 0.001567
vt 0.404971 0.248433
vt 0.404971 0.001567
vt 0.400397 0.001567
vt 0.381837 0.027302
vt 0.389390 0.045523
vt 0.400005 0.030461
vt 0.593719 0.750000
vt 0.593719 1.000000
vt 0.625000 1.000000
vt 0.625000 0.750000
vt 0.125000 0.500000
vt 0.125000 0.750000
vt 0.375000 0.750000
vt 0.375000 0.500000
vt 0.625000 0.718719
vt 0.875000 0.750000
vt 0.875000 0.718719
vt 0.375000 0.281281
vt 0.625000 0.281281
vt 0.406281 0.000000
vt 0.406281 0.250000
vt 0.875000 0.750000
vt 0.875000 0.718719
vt 0.375000 0.250000
vt 0.625000 0.250000
vt 0.875000 0.750000
vt 0.875000 0.750000
vt 0.875000 0.718719
vt 0.875000 0.718719
vt 0.625000 0.281281
vt 0.625000 0.250000
vt 0.375000 0.750000
vt 0.375000 0.500000
vt 0.406281 0.000000
vt 0.406281 0.250000
vt 0.875000 0.750000
vt 0.875000 0.718719
vt 0.406281 0.000000
vt 0.406281 0.250000
vt 0.375000 0.750000
vt 0.375000 0.500000
vt 0.625000 0.281281
vt 0.625000 0.250000
vt 0.625000 0.281281
vt 0.625000 0.250000
vt 0.376310 0.001567
vt 0.376310 0.248433
vt 0.404971 0.248433
vt 0.404971 0.001567
vt 0.400397 0.001567
vt 0.400005 0.030461
vt 0.389390 0.045523
vt 0.381837 0.027302
vt 0.377449 0.001567
vt 0.375000 0.750000
vt 0.375000 0.500000
vt 0.406281 0.000000
vt 0.406281 0.250000
vt 0.375000 0.500000
vt 0.375000 0.500000
vt 0.406281 0.000000
vt 0.406281 0.000000
vt 0.375000 0.000000
vt 0.375000 0.000000
vt 0.378519 0.000000
vt 0.381777 0.000000
vt 0.390507 0.000000
vt 0.396735 0.000000
vt 0.399107 0.000000
vt 0.385205 0.000000
vt 0.390598 0.000000
vt 0.393310 0.000000
vt 0.390702 0.022103
vt 0.383087 0.026789
vt 0.389676 0.042685
vt 0.398703 0.029878
vt 0.376310 0.001567
vt 0.375000 0.250000
vt 0.376310 0.248433
vt 0.377449 0.001567
vt 0.404971 0.248433
vt 0.404971 0.001567
vt 0.400397 0.001567
vt 0.381837 0.027302
vt 0.389390 0.045523
vt 0.400005 0.030461
vn 0.0000 -1.0000 0.0000
vn 1.0000 0.0000 0.0000
vn 0.0000 0.0000 -1.0000
vn 0.0000 0.0000 1.0000
vn 0.0000 1.0000 0.0000
vn -1.0000 0.0000 0.0000
vn 0.0000 -0.9284 0.3716
vn -0.0000 0.9284 -0.3716
vn 0.0000 0.9720 -0.2348
vn 0.0000 0.9980 -0.0630
vn 0.0000 0.9994 -0.0340
vn 0.0000 1.0000 -0.0070
usemtl Material
s off
f 7/1/1 2/2/1 4/3/1 5/4/1
f 2/5/2 1/6/2 3/7/2 4/8/2
f 7/9/3 6/10/3 1/11/3 2/2/3
f 5/12/4 8/13/4 60/14/4 61/15/4
f 6/16/5 62/17/5 60/18/5 8/19/5
f 1/11/3 6/10/3 11/20/3 9/21/3
f 4/22/4 3/23/4 8/13/4 5/12/4
f 59/24/3 62/25/3 6/10/3 7/9/3
f 59/26/1 7/1/1 5/4/1 61/27/1
f 15/28/3 16/29/3 14/30/3 13/31/3
f 8/13/4 3/23/4 10/32/4 12/33/4
f 3/7/2 1/6/2 9/34/2 10/35/2
f 6/16/6 8/19/6 12/36/6 11/37/6
f 9/21/1 11/20/1 19/38/1 17/39/1
f 11/37/1 12/36/1 20/40/1 19/41/1
f 10/35/1 9/34/1 17/42/1 18/43/1
f 12/33/1 10/32/1 18/44/1 20/45/1
f 20/45/4 18/44/4 38/46/4 40/47/4
f 21/48/5 26/49/5 30/50/5 31/51/5 32/52/5 25/53/5 23/54/5 24/55/5 22/56/5
f 18/43/2 17/42/2 37/57/2 38/58/2
f 19/41/6 20/40/6 40/59/6 41/60/6
f 17/39/7 19/38/7 16/29/7 15/28/7
f 37/57/2 17/42/2 15/61/2 13/62/2
f 19/41/6 41/60/6 14/63/6 16/64/6
f 41/60/8 42/65/8 27/66/8 28/67/8 29/68/8 39/69/8 37/70/8 13/71/8 14/63/8
f 39/69/9 29/68/9 28/67/9 27/66/9 42/65/9 33/72/9 35/73/9 34/74/9
f 42/65/10 45/75/10 44/76/10 43/77/10 39/69/10 34/74/10 36/78/10 33/72/10
f 34/74/8 35/73/8 33/72/8
f 33/72/11 36/78/11 34/74/11
f 46/79/12 47/80/12 38/81/12 37/70/12
f 48/82/5 46/79/5 37/70/5 39/69/5
f 47/80/5 49/83/5 40/59/5 38/81/5
f 49/83/12 50/84/12 41/60/12 40/59/12
f 50/84/5 51/85/5 42/65/5 41/60/5
f 52/86/5 48/82/5 39/69/5 43/77/5
f 53/87/5 52/86/5 43/77/5 44/76/5
f 54/88/5 53/87/5 44/76/5 45/75/5
f 51/85/5 54/88/5 45/75/5 42/65/5
f 21/48/6 22/56/6 47/80/6 46/79/6
f 26/49/4 21/48/4 46/79/4 48/82/4
f 22/56/3 24/55/3 49/83/3 47/80/3
f 24/55/2 23/54/2 50/84/2 49/83/2
f 23/54/4 25/53/4 51/85/4 50/84/4
f 30/50/4 26/49/4 48/82/4 52/86/4
f 31/51/4 30/50/4 52/86/4 53/87/4
f 32/52/4 31/51/4 53/87/4 54/88/4
f 25/53/4 32/52/4 54/88/4 51/85/4
f 65/89/1 63/90/1 58/91/1 56/92/1
f 56/93/6 58/94/6 57/95/6 55/96/6
f 65/97/3 56/92/3 55/98/3 64/99/3
f 63/100/4 61/15/4 60/14/4 66/101/4
f 64/102/5 66/103/5 60/18/5 62/17/5
f 55/98/3 67/104/3 69/105/3 64/99/3
f 58/106/4 63/100/4 66/101/4 57/107/4
f 59/24/3 65/97/3 64/99/3 62/25/3
f 59/26/1 61/27/1 63/90/1 65/89/1
f 73/108/3 71/109/3 72/110/3 74/111/3
f 66/101/4 70/112/4 68/113/4 57/107/4
f 57/95/6 68/114/6 67/115/6 55/96/6
f 64/102/2 69/116/2 70/117/2 66/103/2
f 67/104/1 75/118/1 77/119/1 69/105/1
f 69/116/1 77/120/1 78/121/1 70/117/1
f 68/114/1 76/122/1 75/123/1 67/115/1
f 70/112/1 78/124/1 76/125/1 68/113/1
f 78/124/4 98/126/4 96/127/4 76/125/4
f 79/128/5 80/129/5 82/130/5 81/131/5 83/132/5 90/133/5 89/134/5 88/135/5 84/136/5
f 76/122/6 96/137/6 95/138/6 75/123/6
f 77/120/2 99/139/2 98/140/2 78/121/2
f 75/118/7 73/108/7 74/111/7 77/119/7
f 95/138/6 71/141/6 73/142/6 75/123/6
f 77/120/2 74/143/2 72/144/2 99/139/2
f 99/139/8 72/144/8 71/145/8 95/146/8 97/147/8 87/148/8 86/149/8 85/150/8 100/151/8
f 97/147/9 92/152/9 93/153/9 91/154/9 100/151/9 85/150/9 86/149/9 87/148/9
f 100/151/10 91/154/10 94/155/10 92/152/10 97/147/10 101/156/10 102/157/10 103/158/10
f 92/152/8 91/154/8 93/153/8
f 91/154/11 92/152/11 94/155/11
f 104/159/12 95/146/12 96/160/12 105/161/12
f 106/162/5 97/147/5 95/146/5 104/159/5
f 105/161/5 96/160/5 98/140/5 107/163/5
f 107/163/12 98/140/12 99/139/12 108/164/12
f 108/164/5 99/139/5 100/151/5 109/165/5
f 110/166/5 101/156/5 97/147/5 106/162/5
f 111/167/5 102/157/5 101/156/5 110/166/5
f 112/168/5 103/158/5 102/157/5 111/167/5
f 109/165/5 100/151/5 103/158/5 112/168/5
f 79/128/2 104/159/2 105/161/2 80/129/2
f 84/136/4 106/162/4 104/159/4 79/128/4
f 80/129/3 105/161/3 107/163/3 82/130/3
f 82/130/6 107/163/6 108/164/6 81/131/6
f 81/131/4 108/164/4 109/165/4 83/132/4
f 88/135/4 110/166/4 106/162/4 84/136/4
f 89/134/4 111/167/4 110/166/4 88/135/4
f 90/133/4 112/168/4 111/167/4 89/134/4
f 83/132/4 109/165/4 112/168/4 90/133/4
